<svg width="16" height="16" viewBox="0 0 16 16" fill="none" xmlns="http://www.w3.org/2000/svg">
<path d="M5.86487 3.05628C6.81486 1.35209 7.28985 0.5 8 0.5C8.71015 0.5 9.18514 1.35209 10.1351 3.05628L10.3809 3.49717C10.6509 3.98145 10.7858 4.22359 10.9963 4.38336C11.2068 4.54312 11.4689 4.60243 11.9931 4.72104L12.4703 4.82902C14.3151 5.24642 15.2375 5.45511 15.4569 6.1608C15.6764 6.86648 15.0476 7.6018 13.7899 9.07244L13.4646 9.45292C13.1072 9.87083 12.9285 10.0798 12.8481 10.3383C12.7677 10.5968 12.7947 10.8756 12.8488 11.4332L12.898 11.9408C13.0881 13.9029 13.1832 14.884 12.6086 15.3202C12.0341 15.7563 11.1705 15.3587 9.44324 14.5634L8.99639 14.3576C8.50556 14.1316 8.26014 14.0186 8 14.0186C7.73986 14.0186 7.49444 14.1316 7.00362 14.3576L6.55676 14.5634C4.82951 15.3587 3.96588 15.7563 3.39136 15.3202C2.81684 14.884 2.91191 13.903 3.10205 11.9408L3.15124 11.4332C3.20527 10.8756 3.23229 10.5968 3.1519 10.3383C3.07151 10.0798 2.89282 9.87083 2.53544 9.45292L2.21007 9.07244C0.952437 7.6018 0.323618 6.86648 0.543066 6.1608C0.762513 5.45511 1.68489 5.24642 3.52965 4.82902L4.00692 4.72104C4.53114 4.60243 4.79325 4.54312 5.00371 4.38336C5.21417 4.22359 5.34914 3.98145 5.6191 3.49718L5.86487 3.05628Z" fill="#FFC23D"/>
</svg>
